<?xml version="1.0" standalone="no"?>
<!DOCTYPE svg PUBLIC "-//W3C//DTD SVG 1.1//EN" "http://www.w3.org/Graphics/SVG/1.1/DTD/svg11.dtd" >
<svg xmlns="http://www.w3.org/2000/svg">
<metadata></metadata>
<defs>
<font id="HelveticaNeueLTStd67MdCn" horiz-adv-x="948" >
<font-face units-per-em="2048" ascent="1462" descent="-586" />
<missing-glyph horiz-adv-x="491" />
<glyph horiz-adv-x="0" />
<glyph horiz-adv-x="2048" />
<glyph unicode="&#xd;" horiz-adv-x="682" />
<glyph unicode=" "  horiz-adv-x="491" />
<glyph unicode="&#x09;" horiz-adv-x="491" />
<glyph unicode="&#xa0;" horiz-adv-x="491" />
<glyph unicode="!" horiz-adv-x="569" d="M168 0v233h233v-233h-233zM168 999v463h233v-463l-34 -606h-164z" />
<glyph unicode="&#x22;" horiz-adv-x="872" d="M156 877v585h176v-585h-176zM541 877v585h176v-585h-176z" />
<glyph unicode="#" horiz-adv-x="983" d="M-6 410v151h199l40 299h-180v152h201l57 409h170l-57 -409h217l57 409h170l-57 -409h178v-152h-198l-41 -299h180v-151h-201l-57 -410h-170l57 410h-217l-57 -410h-170l57 410h-178zM362 561h218l41 299h-218z" />
<glyph unicode="$" horiz-adv-x="983" d="M33 406v32h233v-32q0 -117 41 -179.5t135 -79.5v476l-84 30q-162 59 -233.5 150.5t-71.5 255.5t111.5 277.5t277.5 113.5v143h90v-143q246 0 342 -181q48 -92 48 -196v-29h-234v29q0 184 -156 201v-453l130 -45q150 -55 219 -143t69 -234q0 -205 -109.5 -311t-308.5 -117 v-176h-90v176q-410 23 -409 435zM287 1069q-1 -143 155 -213v418q-68 -6 -111.5 -59.5t-43.5 -145.5zM532 147q88 12 136.5 72t48.5 145.5t-44.5 140t-140.5 83.5v-441z" />
<glyph unicode="%" horiz-adv-x="1554" d="M74 1057q0 215 73.5 304t206.5 89t207 -89t74 -304t-74 -304t-207 -89t-206.5 89t-73.5 304zM250 1056.5q0 -147.5 21.5 -206.5t83 -59t83 59t21.5 206.5t-21.5 207t-83 59.5t-83 -59.5t-21.5 -207zM369 -29l649 1479h158l-654 -1479h-153zM920 365q0 215 73.5 304 t206.5 89t207 -89t74 -304t-74 -304.5t-207 -89.5t-206.5 89.5t-73.5 304.5zM1096 364.5q0 -147.5 21.5 -207t83 -59.5t83 59.5t21.5 207t-21.5 207t-83 59.5t-83 -59.5t-21.5 -207z" />
<glyph unicode="&#x26;" horiz-adv-x="1175" d="M43 375q0 229 205 383l92 69l-55 82q-94 147 -95 240q0 152 97.5 232.5t251.5 80.5q101 0 201 -56q53 -30 86.5 -92.5t33.5 -148.5q0 -174 -178 -307l-76 -55l256 -361q57 94 58 224v28h184v-18q0 -80 -28.5 -191.5t-96.5 -205.5l199 -279h-248l-88 125 q-168 -154 -369 -154q-119 0 -208 40t-135 105q-87 121 -87 259zM264 391q0 -98 73 -165.5t185.5 -67.5t216.5 112l-297 418l-43 -37q-135 -109 -135 -260zM387 1173.5q0 -75.5 86 -192.5l33 -43l51 47q106 102 106.5 177t-36.5 112t-96.5 37t-101.5 -31t-42 -106.5z" />
<glyph unicode="'" horiz-adv-x="491" d="M158 877v585h176v-585h-176z" />
<glyph unicode="(" horiz-adv-x="530" d="M76 541.5q0 265.5 85 506t216 414.5h153q-233 -391 -233 -919q0 -246 58.5 -492t174.5 -428h-157q-131 172 -214 412.5t-83 506z" />
<glyph unicode=")" horiz-adv-x="530" d="M0 -377q233 391 233 920q0 246 -58 491.5t-175 427.5h158q131 -172 214 -412.5t83 -505.5t-85 -506t-216 -415h-154z" />
<glyph unicode="*" horiz-adv-x="757" d="M33 1161l47 135l231 -90v256h140v-254l227 88l47 -135l-233 -67l159 -211l-114 -88l-156 215l-152 -215l-114 88l155 211z" />
<glyph unicode="+" horiz-adv-x="1228" d="M96 430v176h430v430h176v-430h431v-176h-431v-430h-176v430h-430z" />
<glyph unicode="," horiz-adv-x="491" d="M129 0v270h233v-270q0 -131 -53 -211t-180 -104v118q102 27 102 166v31h-102z" />
<glyph unicode="-" horiz-adv-x="720" d="M92 487v209h537v-209h-537z" />
<glyph unicode="." horiz-adv-x="491" d="M129 0v270h233v-270h-233z" />
<glyph unicode="/" horiz-adv-x="606" d="M-20 -29l464 1520h183l-465 -1520h-182z" />
<glyph unicode="0" horiz-adv-x="983" d="M57 710.5q0 405.5 107.5 572.5t327 167t327 -167t107.5 -572.5t-107.5 -572.5t-327 -167t-327 167t-107.5 572.5zM291 710.5q0 -323.5 42 -449.5t158.5 -126t158.5 126t42 449.5t-42 449.5t-158.5 126t-158.5 -126t-42 -449.5z" />
<glyph unicode="1" horiz-adv-x="983" d="M123 1053v151h22q293 0 342 217v29h170v-1450h-233v1053h-301z" />
<glyph unicode="2" horiz-adv-x="983" d="M68 0q0 248 120 410q82 109 250 248q64 53 117 109q121 128 121 300q0 96 -44 157.5t-136 61.5q-203 0 -203 -303h-221q0 467 428 467q211 0 310 -107.5t99 -261t-49 -258t-125 -174t-155 -131.5q-201 -157 -252 -321h587v-197h-847z" />
<glyph unicode="3" horiz-adv-x="983" d="M63 403h222q0 -113 45 -190.5t150 -77.5t155.5 72t50.5 199.5t-53 193.5t-182 66h-91v163h84q209 0 209 248q0 88 -42 148.5t-126 60.5q-184 0 -184 -254h-221q0 205 105.5 311.5t312.5 106.5q146 0 258 -75q59 -40 95 -115.5t36 -186.5t-63.5 -203t-168.5 -108v-6 q117 -10 191 -99.5t74 -236.5q0 -219 -111 -334t-332 -115q-414 0 -414 432z" />
<glyph unicode="4" horiz-adv-x="983" d="M43 326v200l502 924h237v-938h158v-186h-158v-326h-221v326h-518zM231 512h330v598h-4z" />
<glyph unicode="5" horiz-adv-x="983" d="M66 360v31h221v-39q0 -88 49 -146.5t141 -58.5q207 0 207 319.5t-195 319.5q-74 0 -124 -35.5t-66 -97.5l-207 9l72 759h698v-186h-524l-47 -381l4 -4q100 113 244 113q109 0 186.5 -42t117.5 -115q75 -137 75 -345.5t-111 -349t-321 -140.5t-315 99.5t-105 289.5z" />
<glyph unicode="6" horiz-adv-x="983" d="M51 669q0 173 19.5 304t67.5 245q98 232 376 232q391 0 391 -352h-233q0 74 -38 131t-117 57t-129 -45t-70 -130q-33 -135 -33 -325l6 -4q84 154 282 154q156 0 257.5 -111.5t101.5 -320.5q0 -532 -445 -533q-266 0 -356 194q-45 97 -62.5 214t-17.5 290zM305 445.5 q0 -142.5 51.5 -226.5t149.5 -84q193 0 192.5 312t-192.5 313q-117 0 -159 -86t-42 -228.5z" />
<glyph unicode="7" horiz-adv-x="983" d="M61 1212v209h861v-184q-174 -227 -303.5 -571t-153.5 -666h-246q25 311 160 645t317 567h-635z" />
<glyph unicode="8" horiz-adv-x="983" d="M53 406q0 156 67.5 247.5t180.5 114.5v4q-201 70 -201 313q0 168 104.5 266.5t287 98.5t287 -98.5t104.5 -266.5q0 -244 -201 -313v-4q113 -23 180.5 -115t67.5 -247q0 -435 -438.5 -435t-438.5 435zM287 410q0 -274 204.5 -274.5t204.5 274.5q0 129 -45 201.5 t-159.5 72.5t-159.5 -72.5t-45 -201.5zM309 1067q0 -219 182.5 -219t182.5 219t-182.5 219t-182.5 -219z" />
<glyph unicode="9" horiz-adv-x="983" d="M51 918q0 532 445 532q267 0 356 -194q45 -97 62.5 -213.5t17.5 -289.5t-19.5 -304.5t-67.5 -244.5q-98 -233 -376 -233q-391 1 -391 353h233q0 -74 38 -131.5t117 -57.5t129 45t71 130q32 135 32 325l-6 4q-84 -154 -282 -154q-156 0 -257.5 112t-101.5 321zM284.5 974 q0.5 -312 192.5 -312q117 0 159 85.5t42 228t-51.5 226.5t-149.5 84q-193 0 -192.5 -312z" />
<glyph unicode=":" horiz-adv-x="491" d="M129 0v270h233v-270h-233zM129 778v271h233v-271h-233z" />
<glyph unicode=";" horiz-adv-x="491" d="M129 0v270h233v-270q0 -131 -53 -211t-180 -104v118q102 27 102 166v31h-102zM129 778v271h233v-271h-233z" />
<glyph unicode="&#x3c;" horiz-adv-x="1228" d="M96 442v152l1037 463v-176l-828 -363l828 -362v-176z" />
<glyph unicode="=" horiz-adv-x="1228" d="M96 217v176h1037v-176h-1037zM96 643v176h1037v-176h-1037z" />
<glyph unicode="&#x3e;" horiz-adv-x="1228" d="M96 -20v176l828 362l-828 363v176l1037 -463v-152z" />
<glyph unicode="?" d="M72 1026q0 209 97 337t296.5 128t305.5 -102.5t106 -290.5q0 -96 -33 -176t-80 -132.5t-95 -99.5q-114 -112 -114 -211v-86h-209v123q0 146 105 249l87 84q105 100 105 249q0 217 -166 217q-184 0 -184 -289h-221zM332 0v233h233v-233h-233z" />
<glyph unicode="@" horiz-adv-x="1638" d="M59 720q0 337 221.5 554t553 217t538.5 -175t207 -450q0 -117 -35 -217t-91 -166.5t-126 -113.5q-131 -88 -268 -88q-74 0 -110 32.5t-34 87.5h-4q-109 -121 -242 -120.5t-214.5 91.5t-81.5 240q0 217 139 383t307 166t246 -157l39 120h145l-153 -553q-23 -90 -23 -100 q0 -45 68 -45q90 0 171 125t81 289q0 213 -160 350t-381 137q-262 0 -434 -178t-172 -432t173 -418t417 -164q322 0 505 180h172q-86 -156 -261 -250t-416 -94q-336 0 -556.5 206t-220.5 543zM549 658q0 -226 190 -226q100 0 182.5 130t82.5 251q0 197 -166 197 q-121 0 -205 -119t-84 -233z" />
<glyph unicode="A" horiz-adv-x="1062" d="M-18 0l415 1462h299l385 -1462h-243l-90 358h-429l-94 -358h-243zM362 545h347l-168 721h-4z" />
<glyph unicode="B" horiz-adv-x="1099" d="M121 0v1462h473q176 0 284.5 -86t108.5 -268q0 -264 -215 -332v-4q127 -23 194.5 -110t67.5 -266t-121.5 -287.5t-328.5 -108.5h-463zM354 176h232q104 0 159.5 66.5t55.5 187.5t-63.5 186.5t-166.5 65.5h-217v-506zM354 846h185q104 0 159.5 62.5t55.5 176t-61.5 157.5 t-174.5 44h-164v-440z" />
<glyph unicode="C" horiz-adv-x="1062" d="M86 731.5q0 403.5 107.5 581.5t377.5 178q440 0 441 -459v-26h-234v24q0 123 -46 204t-152 81h-11q-90 0 -142 -45q-108 -93 -108 -533q0 -340 57.5 -465t192.5 -125q217 0 217 353v24h234v-30q0 -214 -96 -360q-106 -163 -365.5 -163t-366 178.5t-106.5 582z" />
<glyph unicode="D" horiz-adv-x="1138" d="M121 0v1462h416q259 0 381 -130q102 -111 126 -358q9 -100 9 -243t-9.5 -243.5t-40 -199t-85.5 -157.5q-124 -131 -381 -131h-416zM354 176h193q147 0 209.5 121t62.5 432t-60.5 434t-211.5 123h-193v-1110z" />
<glyph unicode="E" horiz-adv-x="985" d="M121 0v1462h790v-196h-557v-406h525v-196h-525v-467h574v-197h-807z" />
<glyph unicode="F" d="M121 0v1462h780v-196h-547v-406h514v-196h-514v-664h-233z" />
<glyph unicode="G" horiz-adv-x="1099" d="M86 728q0 396 116.5 579.5t368.5 183.5q104 0 184.5 -32t125.5 -78t73 -107q45 -100 45 -205v-27h-221v35q0 96 -48 167t-157 71q-133 0 -193.5 -122t-60.5 -459t55.5 -462t180.5 -125h5q129 0 183.5 102.5t55.5 344.5h-246v176h467v-770h-176v170h-4 q-49 -104 -122 -151.5t-198 -47.5q-236 0 -335 180.5t-99 576.5z" />
<glyph unicode="H" horiz-adv-x="1138" d="M121 0v1462h233v-585h430v585h234v-1462h-234v680h-430v-680h-233z" />
<glyph unicode="I" horiz-adv-x="454" d="M111 0v1462h233v-1462h-233z" />
<glyph unicode="J" horiz-adv-x="909" d="M33 346v94h221v-71q0 -104 32.5 -161.5t123.5 -60.5q82 0 122 57q29 43 32 145q1 30 1 89v1024h234v-1059q0 -229 -102.5 -330t-283.5 -102h-7q-365 2 -373 375z" />
<glyph unicode="K" horiz-adv-x="1062" d="M121 0v1462h233v-637h4l443 637h256l-422 -616l467 -846h-264l-355 657l-129 -184v-473h-233z" />
<glyph unicode="L" horiz-adv-x="909" d="M94 0v1462h234v-1265h565v-197h-799z" />
<glyph unicode="M" horiz-adv-x="1478" d="M121 0v1462h364l258 -1083h5l253 1083h357v-1462h-221v1217h-4l-295 -1217h-197l-295 1217h-4v-1217h-221z" />
<glyph unicode="N" horiz-adv-x="1175" d="M121 0v1462h285l423 -1089h5v1089h221v-1462h-285l-424 1118h-4v-1118h-221z" />
<glyph unicode="O" horiz-adv-x="1138" d="M86 731q0 393 115.5 576.5t367.5 183.5t368 -183.5t116 -576.5t-116 -576.5t-368 -183.5t-367.5 183.5t-115.5 576.5zM319 737q0 -364 74 -484q37 -60 78 -83t98.5 -23t98.5 23t78 83q73 121 73 484q0 357 -73 475q-37 58 -78 80.5t-98.5 22.5t-98.5 -22.5t-78 -80.5 q-74 -118 -74 -475z" />
<glyph unicode="P" horiz-adv-x="1024" d="M121 0v1462h463q203 0 303 -114.5t100 -312.5t-112.5 -314.5t-315.5 -116.5h-205v-604h-233zM354 780h166q102 0 168 61.5t66 188.5t-58.5 191.5t-191.5 64.5h-150v-506z" />
<glyph unicode="Q" horiz-adv-x="1138" d="M86 731q0 393 115.5 576.5t367.5 183.5t368 -183.5t116 -576.5t-115 -579l149 -158l-139 -125l-149 151q-84 -49 -230 -49q-252 0 -367.5 183.5t-115.5 576.5zM319 737q0 -364 74 -484q37 -60 78 -83t93 -23t89 15l-110 108l133 133l96 -96q47 127 47 367.5t-18.5 359.5 t-55 177.5t-77.5 81t-98.5 22.5t-98.5 -22.5t-78 -80.5q-74 -118 -74 -475z" />
<glyph unicode="R" horiz-adv-x="1099" d="M121 0v1462h516q166 0 268.5 -91t102.5 -286q0 -145 -63.5 -242.5t-180.5 -115.5v-4q113 -10 168 -80t61 -219q4 -227 8 -304t70 -120h-264q-40 49 -44 211q-1 43 -2 100.5t-3 94.5q-4 123 -50 176t-163 53h-191v-635h-233zM354 811h187q111 0 172 63.5t61 174.5 q0 237 -219 237h-2h-199v-475z" />
<glyph unicode="S" horiz-adv-x="1062" d="M68 418v35h233v-37q0 -268 240 -269q104 0 162.5 62.5t58.5 162t-52.5 159t-156.5 90.5l-160 55q-162 61 -233.5 153.5t-71.5 247.5q0 197 123 305.5t332 108.5q106 0 186 -26.5t122 -64.5t67 -94q38 -84 38 -200v-33h-233v31q0 211 -205 211q-84 0 -140 -51.5 t-56 -151.5t50 -155.5t169 -100.5l157 -57q156 -55 226.5 -146.5t70.5 -240.5q0 -440 -483 -441q-129 0 -221 40t-139 109q-84 124 -84 298z" />
<glyph unicode="T" d="M12 1266v196h924v-196h-342v-1266h-234v1266h-348z" />
<glyph unicode="U" horiz-adv-x="1099" d="M102 432v1030h234v-1048q0 -266 215 -267q213 0 213 267v1048h233v-1030q0 -244 -113.5 -352.5t-332.5 -108.5t-334 108.5t-115 352.5z" />
<glyph unicode="V" horiz-adv-x="985" d="M-12 1462h248l247 -1167h4l263 1167h247l-368 -1462h-297z" />
<glyph unicode="W" horiz-adv-x="1517" d="M12 1462h236l192 -1136h4l193 1136h246l196 -1143h4l191 1143h231l-291 -1462h-270l-188 1102h-4l-187 -1102h-270z" />
<glyph unicode="X" horiz-adv-x="1024" d="M0 0l385 743l-352 719h258l233 -485l230 485h252l-355 -719l373 -743h-258l-254 528l-260 -528h-252z" />
<glyph unicode="Y" horiz-adv-x="985" d="M-8 1462h260l246 -631l252 631h243l-391 -891v-571h-233v571z" />
<glyph unicode="Z" d="M37 0v184l612 1082h-575v196h831v-196l-612 -1069h618v-197h-874z" />
<glyph unicode="[" horiz-adv-x="569" d="M158 -377v1839h415v-164h-206v-1511h206v-164h-415z" />
<glyph unicode="\" horiz-adv-x="606" d="M-20 1491h182l465 -1520h-183z" />
<glyph unicode="]" horiz-adv-x="569" d="M-4 -213h207v1511h-207v164h416v-1839h-416v164z" />
<glyph unicode="^" horiz-adv-x="1228" d="M117 573l418 848h155l422 -848h-176l-322 672l-321 -672h-176z" />
<glyph unicode="_" horiz-adv-x="1024" d="M0 -154h1024v-102h-1024v102z" />
<glyph unicode="`" horiz-adv-x="454" d="M-29 1540h246l123 -295h-152z" />
<glyph unicode="a" d="M63 288q0 161 61.5 228.5t194.5 110.5l173 47q70 18 99.5 47t29.5 101.5t-34 114.5t-126 42t-126 -56.5t-34 -154.5h-209q0 182 88 272t299 90q158 0 254 -65.5t96 -204.5v-631q0 -31 16.5 -54t41 -23t37.5 6v-144q-55 -26 -105 -26h-4q-178 0 -186 145h-4 q-88 -162 -275 -162q-135 0 -211 78t-76 239zM285 301q0 -74 35.5 -120t101.5 -46q98 0 148.5 68.5t50.5 193.5v185q-33 -27 -132.5 -62t-113.5 -41q-90 -43 -90 -178z" />
<glyph unicode="b" horiz-adv-x="985" d="M106 0v1462h222v-489h4q66 157 248 157h2q72 0 126 -20t106 -76q108 -118 108 -440t-86 -472.5t-268.5 -150.5t-248.5 164h-4v-135h-209zM315 550q0 -206 40 -304.5t148 -98.5t146.5 101.5t38.5 315.5t-38 302t-145.5 88t-148.5 -99t-41 -305z" />
<glyph unicode="c" horiz-adv-x="909" d="M63 550.5q0 278.5 92.5 429t317.5 150.5q6 0 13 1q87 0 156 -28t107.5 -70t63.5 -99q39 -89 39 -199h-221q0 96 -34.5 164t-118.5 68h-5q-111 0 -149.5 -104.5t-38.5 -311.5t38.5 -311.5t149.5 -104.5h5q163 0 163 266h209q-12 -211 -97 -320.5t-295 -109.5t-302.5 150.5 t-92.5 429z" />
<glyph unicode="d" horiz-adv-x="985" d="M63 565q0 351 108 469q52 56 106.5 76t125.5 20q184 0 250 -157h4v489h222v-1462h-209v135h-4q-66 -164 -248 -164q-355 0 -355 594zM297 564q0 -214 39 -315.5t146 -101.5t147.5 98.5t40.5 304.5t-41 305t-148.5 99t-145.5 -88t-38 -302z" />
<glyph unicode="e" d="M76 535q0 239 74 404q40 91 125 141t208 50q219 0 304 -121.5t85 -369.5v-117h-575v-63q0 -241 86 -307q39 -29 96 -29t95 27.5t54 71.5q29 76 29 147h209q0 -182 -103.5 -290t-283.5 -108q-63 0 -112.5 9.5t-106.5 43t-95 92.5q-89 137 -89 419zM297 674h354v59 q0 246 -170 246q-98 0 -141 -80t-43 -203v-22z" />
<glyph unicode="f" horiz-adv-x="569" d="M20 938v164h154v102q0 152 69.5 213.5t211.5 61.5q72 0 120 -6v-170h-61q-119 0 -119 -105v-96h180v-164h-180v-938h-221v938h-154z" />
<glyph unicode="g" horiz-adv-x="985" d="M90 563q0 401 165 515q75 52 176 52t168 -49t83 -114h4v135h209v-1049q0 -430 -412 -430q-115 0 -193.5 30t-112.5 79q-58 84 -58 174h209q0 -53 44 -92t122.5 -39t129 55t50.5 152v178h-4q-31 -70 -99.5 -111t-150.5 -41q-330 0 -330 555zM311 631q0 -115 2 -161 t11.5 -105.5t27 -94t51 -60.5t87.5 -26t95.5 35t58.5 99q30 107 30 257q0 379 -176 379q-118 0 -154 -109q-33 -99 -33 -214z" />
<glyph unicode="h" horiz-adv-x="985" d="M106 0v1462h222v-479l6 -4q97 151 268 151h2q133 0 204 -69.5t71 -229.5v-831h-222v756q0 106 -34.5 152t-113.5 46t-130 -56t-51 -159v-739h-222z" />
<glyph unicode="i" horiz-adv-x="454" d="M117 0v1102h221v-1102h-221zM117 1257v222h221v-222h-221z" />
<glyph unicode="j" horiz-adv-x="454" d="M-49 -201h51q63 0 89 32t26 118v1153h221v-1174q0 -168 -69.5 -236.5t-221.5 -68.5q-47 0 -96 6v170zM117 1257v222h221v-222h-221z" />
<glyph unicode="k" d="M106 0v1462h222v-821h4l334 461l256 2l-332 -426l375 -678h-242l-270 502l-125 -152v-350h-222z" />
<glyph unicode="l" horiz-adv-x="454" d="M117 0v1462h221v-1462h-221z" />
<glyph unicode="m" horiz-adv-x="1515" d="M117 0v1102h209v-129h6q41 74 112.5 115.5t151.5 41.5q197 0 256 -167q99 167 276 167h2q268 0 269 -292v-838h-221v756q0 106 -32 152t-104 46t-123 -56t-51 -159v-739h-221v756q0 106 -32.5 152t-103.5 46t-122 -56t-51 -159v-739h-221z" />
<glyph unicode="n" horiz-adv-x="985" d="M106 0v1102h209v-129h7q41 74 115.5 115.5t187 41.5t183.5 -69.5t71 -229.5v-831h-222v756q0 106 -34.5 152t-113.5 46t-130 -56t-51 -159v-739h-222z" />
<glyph unicode="o" d="M63 551q0 279 92.5 429t318.5 150t318.5 -150.5t92.5 -428.5q0 -580 -411 -580t-411 580zM285 542q0 -216 37.5 -311.5t151.5 -95.5t152 95.5t38 311.5t-39 320.5t-151 104.5t-150.5 -104.5t-38.5 -320.5z" />
<glyph unicode="p" horiz-adv-x="985" d="M106 -360v1462h209v-135h4q76 163 246 163h2q354 0 355 -593q0 -332 -115 -459q-97 -107 -225 -107q-184 0 -250 158h-4v-489h-222zM315 553q0 -205 39 -305.5t143.5 -100.5t147.5 88.5t43 302.5t-39 315t-146 101t-147.5 -98t-40.5 -303z" />
<glyph unicode="q" horiz-adv-x="985" d="M63 528.5q0 301.5 86.5 451.5t268.5 150t248 -163h4v135h209v-1462h-222v489h-4q-66 -158 -252 -158q-150 0 -244 128t-94 429.5zM297 541q0 -211 42 -302.5t130 -91.5q119 0 160 99.5t41 305.5t-40 304t-148 98t-146.5 -101t-38.5 -312z" />
<glyph unicode="r" horiz-adv-x="645" d="M106 0v1102h222v-172h4q80 200 254 200h2q25 0 53 -8v-225q-49 12 -92 12q-92 0 -156.5 -55t-64.5 -195v-659h-222z" />
<glyph unicode="s" horiz-adv-x="872" d="M57 313v41h197v-35q0 -98 40 -147t132 -49q180 0 180 162q0 121 -121 161l-180 64q-127 43 -181 114.5t-54 213t100 217t283 75.5t260.5 -88t77.5 -213v-49h-209v29q0 170 -146 170q-72 0 -114.5 -35t-42.5 -103t32.5 -102t122.5 -65l141 -49q125 -43 182.5 -116 t57.5 -202q0 -168 -108.5 -252t-297 -84t-270.5 86t-82 256z" />
<glyph unicode="t" horiz-adv-x="569" d="M8 938v164h152v313h221v-313h180v-164h-180v-657q0 -66 21.5 -91.5t74.5 -25.5t84 6v-164q-70 -18 -184.5 -18t-165.5 53t-51 213v684h-152z" />
<glyph unicode="u" horiz-adv-x="985" d="M106 332v770h222v-791q0 -88 37.5 -126t112.5 -38t127 48.5t52 136.5v770h222v-1102h-209v129h-6q-41 -74 -116 -116t-167 -42q-133 0 -204 80t-71 281z" />
<glyph unicode="v" horiz-adv-x="872" d="M14 1102h238l192 -869h5l174 869h235l-291 -1102h-258z" />
<glyph unicode="w" horiz-adv-x="1402" d="M31 1102h229l154 -869h4l164 869h249l164 -869h4l152 869h221l-252 -1102h-248l-172 856h-4l-157 -856h-258z" />
<glyph unicode="x" horiz-adv-x="872" d="M6 0l301 571l-284 531h241l172 -365l180 365h238l-287 -531l299 -571h-239l-193 408l-192 -408h-236z" />
<glyph unicode="y" horiz-adv-x="872" d="M16 1102h238l190 -828h5l176 828h231l-303 -1143q-63 -219 -133 -278q-70 -58 -225 -58h-5h-32t-78 8v176q49 -8 91 -8q98 0 130 86l29 90z" />
<glyph unicode="z" horiz-adv-x="833" d="M51 0v172l481 743h-452v187h702v-182l-463 -734h463v-186h-731z" />
<glyph unicode="{" horiz-adv-x="569" d="M14 475v135q68 4 117 65.5t49 143.5v375q0 125 66.5 196.5t161.5 71.5h147v-127h-68q-55 0 -76.5 -35.5t-21.5 -105.5v-375q0 -125 -63.5 -192.5t-124.5 -81.5v-4q61 -14 124.5 -82t63.5 -193v-375q0 -70 21.5 -105.5t76.5 -35.5h68v-127h-147q-94 0 -161 72t-67 196v375 q0 82 -49 143.5t-117 65.5z" />
<glyph unicode="|" horiz-adv-x="454" d="M139 -29v1520h176v-1520h-176z" />
<glyph unicode="}" horiz-adv-x="569" d="M14 -250h68q55 0 76.5 36t21.5 105v375q0 125 63.5 192.5t125.5 82.5v4q-61 14 -125 81.5t-64 192.5v375q0 70 -21.5 105.5t-76.5 35.5h-68v127h148q94 0 160.5 -71.5t66.5 -196.5v-375q0 -82 49 -143.5t117 -65.5v-135q-68 -4 -117 -65.5t-49 -143.5v-375 q0 -125 -66.5 -196.5t-160.5 -71.5h-148v127z" />
<glyph unicode="~" horiz-adv-x="1228" d="M141 502q43 86 112 132t147.5 46t232.5 -74t201 -74q92 0 180 158l73 -155q-104 -178 -256 -179q-82 0 -235.5 74t-200.5 74q-92 0 -180 -158z" />
<glyph unicode="&#xa1;" horiz-adv-x="569" d="M168 102l35 607h164l34 -607v-462h-233v462zM168 868v234h233v-234h-233z" />
<glyph unicode="&#xa2;" horiz-adv-x="983" d="M98 551q0 264 81 413.5t280 165.5v154h90v-154q102 -6 174 -49t105 -109q57 -115 57 -237h-221q0 207 -115 232v-832q127 37 127 266h209q-12 -201 -88 -309t-248 -121v-180h-90v180q-199 16 -280 166t-81 414zM319 552q0 -181 29 -284.5t111 -132.5v832 q-82 -25 -111 -129.5t-29 -285.5z" />
<glyph unicode="&#xa3;" horiz-adv-x="983" d="M25 145l36 27q213 154 213 338q0 57 -36 135h-201v139h141l-35 72q-68 127 -67 227q0 147 110.5 257t324.5 110t318.5 -113.5t104.5 -283.5v-25h-221v23q0 88 -46 161.5t-147.5 73.5t-156 -48t-54.5 -141t66 -218l47 -95h340v-139h-287q20 -57 21 -121 q0 -109 -62.5 -188.5t-177.5 -165.5l4 -8q78 47 134.5 47t146.5 -31t137 -31t141 54l62 32l77 -161l-40 -25q-131 -78 -261 -76q-70 2 -184.5 41t-181 39t-185.5 -63z" />
<glyph unicode="&#xa4;" horiz-adv-x="983" d="M12 322l105 104q-96 129 -96.5 288t96.5 281l-105 105l92 92l105 -105q127 94 282.5 94.5t282.5 -94.5l105 105l92 -92l-105 -107q96 -127 96.5 -282.5t-96.5 -282.5l105 -106l-92 -93l-107 107q-123 -96 -279.5 -96t-283.5 96l-105 -107zM184 710.5q0 -135.5 89 -227.5 t218.5 -92t218.5 92t89 227.5t-89 227.5t-218.5 92t-218.5 -92t-89 -227.5z" />
<glyph unicode="&#xa5;" horiz-adv-x="983" d="M4 1421h254l234 -581l243 581h244l-301 -667h205v-140h-267l-22 -47v-96h289v-139h-289v-332h-221v332h-289v139h289v96l-21 47h-268v140h207z" />
<glyph unicode="&#xa6;" horiz-adv-x="454" d="M139 -29v568h176v-568h-176zM139 924v567h176v-567h-176z" />
<glyph unicode="&#xa7;" horiz-adv-x="985" d="M49 639q0 188 191 297q-131 74 -131 230.5t108.5 240.5t276.5 84q213 0 300 -109q74 -94 74 -213h-221q0 158 -160 158q-70 0 -113.5 -38t-43.5 -90t35.5 -92t119.5 -87l277 -154q174 -98 174 -305q0 -178 -164 -285q117 -96 117 -252.5t-107.5 -249.5t-292 -93t-285 102 t-100.5 272h222q0 -199 174 -198q68 0 111.5 41t43.5 111.5t-38.5 111.5t-112.5 82l-234 127q-221 121 -221 309zM246 672q0 -51 33.5 -84t121.5 -84l234 -137l33 24q72 61 71.5 152.5t-121.5 165.5l-243 141l-27 -23q-102 -72 -102 -155z" />
<glyph unicode="&#xa8;" horiz-adv-x="454" d="M-41 1286v221h197v-221h-197zM299 1286v221h197v-221h-197z" />
<glyph unicode="&#xa9;" horiz-adv-x="1638" d="M59 731.5q0 315.5 222.5 537.5t538 222t537.5 -222t222 -537.5t-222 -538t-537.5 -222.5t-538 222.5t-222.5 538zM246 731q0 -248 168 -422t405.5 -174t405.5 174t168 422t-168 422t-405.5 174t-405.5 -174t-168 -422zM414 733q0 209 115.5 333t312.5 124 q143 0 244.5 -83t121.5 -230h-164q-16 74 -70 119.5t-136 41.5q-117 0 -182.5 -86t-65.5 -220t67.5 -220t188.5 -86q78 0 133 47t65 125h170q-27 -152 -131 -238t-273 -86t-282.5 125t-113.5 334z" />
<glyph unicode="&#xaa;" horiz-adv-x="647" d="M16 936q0 104 43 145t146 68l106 27q49 12 70.5 28.5t21.5 57.5q0 74 -94 73q-109 0 -108 -102h-152q0 111 62.5 164t216.5 53q240 0 239 -162v-362q0 -47 35 -47q12 0 29 4v-117q-66 -14 -84 -14q-121 0 -127 96h-6q-63 -96 -197 -96q-201 0 -201 184zM193 952 q0 -29 23.5 -51t70.5 -22t81.5 35t34.5 90v116q-20 -14 -82.5 -34.5t-76.5 -28.5q-51 -25 -51 -105z" />
<glyph unicode="&#xab;" horiz-adv-x="833" d="M102 475v234l295 276v-225l-180 -168l180 -168v-225zM436 475v234l295 276v-225l-180 -168l180 -168v-225z" />
<glyph unicode="&#xac;" horiz-adv-x="1228" d="M96 643v176h1037v-602h-177v426h-860z" />
<glyph unicode="&#xad;" horiz-adv-x="720" d="M92 487v209h537v-209h-537z" />
<glyph unicode="&#xae;" horiz-adv-x="1638" d="M59 731.5q0 315.5 222.5 537.5t538 222t537.5 -222t222 -537.5t-222 -538t-537.5 -222.5t-538 222.5t-222.5 538zM246 731q0 -248 168 -422t405.5 -174t405.5 174t168 422t-168 422t-405.5 174t-405.5 -174t-168 -422zM492 297v868h337q164 0 245 -60.5t81 -189.5 q0 -205 -223 -245l237 -373h-176l-221 367h-129v-367h-151zM643 791h156q156 0 189 60q16 28 16 71q0 117 -193 116h-168v-247z" />
<glyph unicode="&#xaf;" horiz-adv-x="454" d="M-61 1335v127h577v-127h-577z" />
<glyph unicode="&#xb0;" horiz-adv-x="819" d="M104 1145q0 125 89.5 215t216.5 90t216 -90t89 -215t-89 -215t-216 -90t-216.5 90t-89.5 215zM244 1144.5q0 -69.5 48 -117.5t117.5 -48t117.5 48t48 117.5t-48 118t-117.5 48.5t-117.5 -48.5t-48 -118z" />
<glyph unicode="&#xb1;" horiz-adv-x="1228" d="M96 0v176h1037v-176h-1037zM96 551v176h430v309h176v-309h431v-176h-431v-309h-176v309h-430z" />
<glyph unicode="&#xb2;" horiz-adv-x="641" d="M33 573q0 113 41 197t99 132t117 89q140 98 140 215t-104 117q-115 0 -115 -156h-176q0 283 286 283t285 -233q0 -148 -114 -240q-50 -41 -102 -77q-135 -94 -171 -187h379v-140h-565z" />
<glyph unicode="&#xb3;" horiz-adv-x="641" d="M20 819h177q0 -47 28.5 -90t92 -43t95 42t31.5 103q0 133 -145 134h-61v127h55q66 0 97.5 35.5t31.5 81.5t-26.5 80t-79 34t-79 -39t-26.5 -86h-176q0 121 80 186.5t201.5 65.5t201.5 -56.5t80 -164.5q0 -68 -48 -125t-116 -68v-4q82 -4 134.5 -58t52.5 -145 q0 -127 -85 -198.5t-228 -71.5t-215.5 62.5t-72.5 197.5z" />
<glyph unicode="&#xb4;" horiz-adv-x="454" d="M115 1245l123 295h245l-217 -295h-151z" />
<glyph unicode="&#xb5;" horiz-adv-x="985" d="M106 -360v1462h222v-756q0 -106 34.5 -152.5t112.5 -46.5t130 56.5t52 158.5v740h222v-1102h-209v129h-6q-41 -74 -104.5 -116t-129 -42t-102.5 37v-368h-222z" />
<glyph unicode="&#xb6;" horiz-adv-x="1228" d="M109 1077q0 199 125.5 292t351.5 93h508v-1753h-187v1614h-227v-1614h-186v996q-160 0 -272.5 106.5t-112.5 265.5z" />
<glyph unicode="&#xb7;" horiz-adv-x="491" d="M98 630.5q0 61.5 43 104.5t104.5 43t104.5 -43t43 -104.5t-43 -104.5t-104.5 -43t-104.5 43t-43 104.5z" />
<glyph unicode="&#xb8;" horiz-adv-x="454" d="M10 -408l33 82q72 -27 135 -26q115 0 115 78q0 35 -27.5 56t-58.5 21t-86 -16l-37 35l113 178h102l-84 -117q51 10 82 11q68 0 114 -45.5t46 -117t-69 -122.5t-177.5 -51t-200.5 34z" />
<glyph unicode="&#xb9;" horiz-adv-x="641" d="M82 1198v115h14q193 0 223 121v16h123v-877h-176v625h-184z" />
<glyph unicode="&#xba;" horiz-adv-x="647" d="M29 1101q0 169 66.5 259t228 90t228 -90t66.5 -259t-66.5 -259t-228 -90t-228 90t-66.5 259zM205 1098q0 -219 118.5 -219t118.5 219q0 106 -24.5 165.5t-94 59.5t-94 -59.5t-24.5 -165.5z" />
<glyph unicode="&#xbb;" horiz-adv-x="833" d="M102 199v225l181 168l-181 168v225l295 -276v-234zM436 199v225l180 168l-180 168v225l295 -276v-234z" />
<glyph unicode="&#xbc;" horiz-adv-x="1476" d="M20 1198v115h15q193 0 223 121v16h123v-877h-176v625h-185zM152 -63l862 1548h151l-862 -1548h-151zM780 193v124l324 560h176v-570h102v-114h-102v-193h-164v193h-336zM901 307h215v373h-4z" />
<glyph unicode="&#xbd;" horiz-adv-x="1476" d="M20 1198v115h15q193 0 223 121v16h123v-877h-176v625h-185zM152 -63l862 1548h151l-862 -1548h-151zM842 0q0 113 41 197t99 132t116 89q141 98 141 215t-104 117q-115 0 -115 -156h-176q0 283 286 283t285 -234q0 -148 -113 -240q-51 -41 -103 -77q-135 -92 -171 -187 h379v-139h-565z" />
<glyph unicode="&#xbe;" horiz-adv-x="1476" d="M-33 819h176q0 -47 29 -90t92.5 -43t95 42t31.5 103q0 133 -145 134h-62v127h56q66 0 97.5 35.5t31.5 81.5t-27 80t-79 34t-78.5 -39t-26.5 -86h-176q0 121 79.5 186.5t201.5 65.5t202 -56.5t80 -164.5q0 -68 -48 -125t-116 -68v-4q82 -4 134 -58t52 -145 q0 -127 -85 -198.5t-227.5 -71.5t-215 62.5t-72.5 197.5zM221 -63l862 1548h152l-862 -1548h-152zM780 193v124l324 560h176v-570h102v-114h-102v-193h-164v193h-336zM901 307h215v373h-4z" />
<glyph unicode="&#xbf;" d="M72 4q0 96 32.5 176t79.5 132.5t96 99.5q113 110 113 211v86h209v-123q0 -149 -105 -249l-87 -84q-105 -103 -105 -249q0 -217 166 -217q184 0 184 289h222q0 -209 -97.5 -337t-297 -128t-305 102.5t-105.5 290.5zM383 868v234h233v-234h-233z" />
<glyph unicode="&#xc0;" horiz-adv-x="1062" d="M-18 0l415 1462h299l385 -1462h-243l-90 358h-429l-94 -358h-243zM291 1839h246l122 -295h-151zM362 545h347l-168 721h-4z" />
<glyph unicode="&#xc1;" horiz-adv-x="1062" d="M-18 0l415 1462h299l385 -1462h-243l-90 358h-429l-94 -358h-243zM362 545h347l-168 721h-4zM434 1544l123 295h246l-217 -295h-152z" />
<glyph unicode="&#xc2;" horiz-adv-x="1062" d="M-18 0l415 1462h299l385 -1462h-243l-90 358h-429l-94 -358h-243zM252 1544l186 295h221l183 -295h-187l-110 180l-117 -180h-176zM362 545h347l-168 721h-4z" />
<glyph unicode="&#xc3;" horiz-adv-x="1062" d="M-18 0l415 1462h299l385 -1462h-243l-90 358h-429l-94 -358h-243zM238 1559q0 84 52 164.5t154 80.5q27 0 107 -36t117 -35q61 -1 61 77h127q0 -80 -48 -160.5t-128 -80.5q-49 0 -133 35.5t-115 35.5t-49 -24.5t-18 -56.5h-127zM362 545h347l-168 721h-4z" />
<glyph unicode="&#xc4;" horiz-adv-x="1062" d="M-18 0l415 1462h299l385 -1462h-243l-90 358h-429l-94 -358h-243zM279 1585v221h196v-221h-196zM362 545h347l-168 721h-4zM618 1585v221h197v-221h-197z" />
<glyph unicode="&#xc5;" horiz-adv-x="1062" d="M-18 0l415 1462h299l385 -1462h-243l-90 358h-429l-94 -358h-243zM330 1730.5q0 90.5 63.5 154t153.5 63.5t153.5 -63.5t63.5 -154t-63.5 -154t-153.5 -63.5t-153.5 63.5t-63.5 154zM362 545h347l-168 721h-4zM432 1730.5q0 -47.5 34 -81t81 -33.5t81 33.5t34 81t-34 81 t-81 33.5t-81 -33.5t-34 -81z" />
<glyph unicode="&#xc6;" horiz-adv-x="1517" d="M-25 0l560 1462h895v-196h-519v-406h490v-196h-490v-467h537v-197h-758v358h-342l-129 -358h-244zM410 545h280v731h-18z" />
<glyph unicode="&#xc7;" horiz-adv-x="1062" d="M86 742q0 392 107.5 570.5t377.5 178.5q440 0 441 -459v-26h-234v24q0 123 -47 206t-162 79q-90 0 -142 -45q-108 -93 -108 -533q0 -340 57.5 -465t192.5 -125q217 0 217 353v24h234v-30q0 -137 -36 -246t-131 -188.5t-245 -88.5l-63 -88q51 10 82 11q68 0 113.5 -45.5 t45.5 -117t-68.5 -122.5t-177 -51t-200.5 34l33 82q72 -27 135 -26q115 0 115 78q0 35 -28 56t-59 21t-85 -16l-37 35l96 149q-236 20 -330 199.5t-94 571.5z" />
<glyph unicode="&#xc8;" horiz-adv-x="985" d="M121 0v1462h790v-196h-557v-406h525v-196h-525v-467h574v-197h-807zM262 1839h246l123 -295h-152z" />
<glyph unicode="&#xc9;" horiz-adv-x="985" d="M121 0v1462h790v-196h-557v-406h525v-196h-525v-467h574v-197h-807zM406 1544l122 295h246l-217 -295h-151z" />
<glyph unicode="&#xca;" horiz-adv-x="985" d="M121 0v1462h790v-196h-557v-406h525v-196h-525v-467h574v-197h-807zM223 1544l187 295h221l182 -295h-186l-111 180l-117 -180h-176z" />
<glyph unicode="&#xcb;" horiz-adv-x="985" d="M121 0v1462h790v-196h-557v-406h525v-196h-525v-467h574v-197h-807zM250 1585v221h196v-221h-196zM590 1585v221h196v-221h-196z" />
<glyph unicode="&#xcc;" horiz-adv-x="454" d="M-29 1839h246l123 -295h-152zM111 0v1462h233v-1462h-233z" />
<glyph unicode="&#xcd;" horiz-adv-x="454" d="M111 0v1462h233v-1462h-233zM115 1544l123 295h245l-217 -295h-151z" />
<glyph unicode="&#xce;" horiz-adv-x="454" d="M-68 1544l187 295h221l182 -295h-186l-111 180l-116 -180h-177zM111 0v1462h233v-1462h-233z" />
<glyph unicode="&#xcf;" horiz-adv-x="454" d="M-41 1585v221h197v-221h-197zM111 0v1462h233v-1462h-233zM299 1585v221h197v-221h-197z" />
<glyph unicode="&#xd0;" horiz-adv-x="1138" d="M0 682v164h121v616h416q259 0 381 -130q102 -111 126 -358q9 -100 9 -243t-9.5 -243.5t-40 -199t-85.5 -157.5q-124 -131 -381 -131h-416v682h-121zM354 176h193q147 0 209.5 121t62.5 432t-60.5 434t-211.5 123h-193v-440h244v-164h-244v-506z" />
<glyph unicode="&#xd1;" horiz-adv-x="1175" d="M121 0v1462h285l423 -1089h5v1089h221v-1462h-285l-424 1118h-4v-1118h-221zM279 1559q0 84 52 164.5t154 80.5q27 0 107 -36t117 -35q61 -1 61 77h127q0 -80 -48 -160.5t-128 -80.5q-49 0 -133 35.5t-115 35.5t-49 -24.5t-18 -56.5h-127z" />
<glyph unicode="&#xd2;" horiz-adv-x="1138" d="M86 731q0 393 115.5 576.5t367.5 183.5t368 -183.5t116 -576.5t-116 -576.5t-368 -183.5t-367.5 183.5t-115.5 576.5zM313 1839h246l123 -295h-152zM319 737q0 -364 74 -484q37 -60 78 -83t98.5 -23t98.5 23t78 83q73 121 73 484q0 357 -73 475q-37 58 -78 80.5 t-98.5 22.5t-98.5 -22.5t-78 -80.5q-74 -118 -74 -475z" />
<glyph unicode="&#xd3;" horiz-adv-x="1138" d="M86 731q0 393 115.5 576.5t367.5 183.5t368 -183.5t116 -576.5t-116 -576.5t-368 -183.5t-367.5 183.5t-115.5 576.5zM319 737q0 -364 74 -484q37 -60 78 -83t98.5 -23t98.5 23t78 83q73 121 73 484q0 357 -73 475q-37 58 -78 80.5t-98.5 22.5t-98.5 -22.5t-78 -80.5 q-74 -118 -74 -475zM457 1544l123 295h245l-217 -295h-151z" />
<glyph unicode="&#xd4;" horiz-adv-x="1138" d="M86 731q0 393 115.5 576.5t367.5 183.5t368 -183.5t116 -576.5t-116 -576.5t-368 -183.5t-367.5 183.5t-115.5 576.5zM274 1544l187 295h221l182 -295h-186l-111 180l-116 -180h-177zM319 737q0 -364 74 -484q37 -60 78 -83t98.5 -23t98.5 23t78 83q73 121 73 484 q0 357 -73 475q-37 58 -78 80.5t-98.5 22.5t-98.5 -22.5t-78 -80.5q-74 -118 -74 -475z" />
<glyph unicode="&#xd5;" horiz-adv-x="1138" d="M86 731q0 393 115.5 576.5t367.5 183.5t368 -183.5t116 -576.5t-116 -576.5t-368 -183.5t-367.5 183.5t-115.5 576.5zM260 1559q0 84 52.5 164.5t154.5 80.5q27 0 106.5 -36t116.5 -35q62 -1 62 77h127q0 -80 -48.5 -160.5t-128.5 -80.5q-49 0 -133 35.5t-114.5 35.5 t-49 -24.5t-18.5 -56.5h-127zM319 737q0 -364 74 -484q37 -60 78 -83t98.5 -23t98.5 23t78 83q73 121 73 484q0 357 -73 475q-37 58 -78 80.5t-98.5 22.5t-98.5 -22.5t-78 -80.5q-74 -118 -74 -475z" />
<glyph unicode="&#xd6;" horiz-adv-x="1138" d="M86 731q0 393 115.5 576.5t367.5 183.5t368 -183.5t116 -576.5t-116 -576.5t-368 -183.5t-367.5 183.5t-115.5 576.5zM301 1585v221h197v-221h-197zM319 737q0 -364 74 -484q37 -60 78 -83t98.5 -23t98.5 23t78 83q73 121 73 484q0 357 -73 475q-37 58 -78 80.5 t-98.5 22.5t-98.5 -22.5t-78 -80.5q-74 -118 -74 -475zM641 1585v221h197v-221h-197z" />
<glyph unicode="&#xd7;" horiz-adv-x="1228" d="M143 162l357 356l-357 356l115 115l354 -356l359 356l114 -115l-358 -356l358 -356l-114 -115l-359 359l-354 -359z" />
<glyph unicode="&#xd8;" horiz-adv-x="1138" d="M86 701q0 423 115.5 606.5t367.5 183.5q139 0 236 -57l55 133l105 -49l-68 -158q156 -176 156 -599t-116 -606.5t-368 -183.5q-139 0 -233 58l-57 -135l-105 49l68 159q-156 176 -156 599zM319 737q0 -233 33 -370h4l369 876q-53 72 -156 72q-57 0 -98 -22.5t-78 -80.5 q-74 -118 -74 -475zM416 219q51 -72 153 -72q57 0 98.5 23t78.5 83q73 121 73 484q0 225 -31 359h-4z" />
<glyph unicode="&#xd9;" horiz-adv-x="1099" d="M102 432v1030h234v-1048q0 -266 215 -267q213 0 213 267v1048h233v-1030q0 -244 -113.5 -352.5t-332.5 -108.5t-334 108.5t-115 352.5zM295 1839h246l123 -295h-152z" />
<glyph unicode="&#xda;" horiz-adv-x="1099" d="M102 432v1030h234v-1048q0 -266 215 -267q213 0 213 267v1048h233v-1030q0 -244 -113.5 -352.5t-332.5 -108.5t-334 108.5t-115 352.5zM438 1544l123 295h246l-217 -295h-152z" />
<glyph unicode="&#xdb;" horiz-adv-x="1099" d="M102 432v1030h234v-1048q0 -266 215 -267q213 0 213 267v1048h233v-1030q0 -244 -113.5 -352.5t-332.5 -108.5t-334 108.5t-115 352.5zM256 1544l186 295h222l182 -295h-187l-110 180l-117 -180h-176z" />
<glyph unicode="&#xdc;" horiz-adv-x="1099" d="M102 432v1030h234v-1048q0 -266 215 -267q213 0 213 267v1048h233v-1030q0 -244 -113.5 -352.5t-332.5 -108.5t-334 108.5t-115 352.5zM283 1585v221h196v-221h-196zM623 1585v221h196v-221h-196z" />
<glyph unicode="&#xdd;" horiz-adv-x="985" d="M-8 1462h260l246 -631l252 631h243l-391 -891v-571h-233v571zM381 1544l123 295h246l-218 -295h-151z" />
<glyph unicode="&#xde;" horiz-adv-x="1024" d="M121 0v1462h233v-278h230q203 0 303 -115t100 -312.5t-112.5 -314t-315.5 -116.5h-205v-326h-233zM354 502h166q102 0 168 61.5t66 188.5t-58.5 191.5t-191.5 64.5h-150v-506z" />
<glyph unicode="&#xdf;" horiz-adv-x="985" d="M90 0v1092q0 387 385 387q102 0 183 -27t140.5 -105.5t59.5 -203.5q0 -252 -205 -303v-4q145 -14 207 -122t62 -259q0 -215 -96.5 -341t-293.5 -126h-104v176h55q205 0 205 290t-203 289h-53v164h39q55 0 110.5 47t55.5 154q0 207 -163 207t-163 -207v-1108h-221z" />
<glyph unicode="&#xe0;" d="M63 288q0 161 61.5 228.5t194.5 110.5l173 47q70 18 99.5 47t29.5 101.5t-34 114.5t-126 42t-126 -56.5t-34 -154.5h-209q0 182 88 272t299 90q158 0 254 -65.5t96 -204.5v-631q0 -31 16.5 -54t41 -23t37.5 6v-144q-57 -27 -109 -26q-178 0 -186 145h-4 q-88 -162 -275 -162q-135 0 -211 78t-76 239zM219 1540h246l123 -295h-152zM285 301q0 -74 35.5 -120t101.5 -46q98 0 148.5 68.5t50.5 193.5v185q-33 -27 -132.5 -62t-113.5 -41q-90 -43 -90 -178z" />
<glyph unicode="&#xe1;" d="M63 288q0 161 61.5 228.5t194.5 110.5l173 47q70 18 99.5 47t29.5 101.5t-34 114.5t-126 42t-126 -56.5t-34 -154.5h-209q0 182 88 272t299 90q158 0 254 -65.5t96 -204.5v-631q0 -31 16.5 -54t41 -23t37.5 6v-144q-57 -27 -109 -26q-178 0 -186 145h-4 q-88 -162 -275 -162q-135 0 -211 78t-76 239zM285 301q0 -74 35.5 -120t101.5 -46q98 0 148.5 68.5t50.5 193.5v185q-33 -27 -132.5 -62t-113.5 -41q-90 -43 -90 -178zM362 1245l123 295h246l-217 -295h-152z" />
<glyph unicode="&#xe2;" d="M63 288q0 161 61.5 228.5t194.5 110.5l173 47q70 18 99.5 47t29.5 101.5t-34 114.5t-126 42t-126 -56.5t-34 -154.5h-209q0 182 88 272t299 90q158 0 254 -65.5t96 -204.5v-631q0 -31 16.5 -54t41 -23t37.5 6v-144q-57 -27 -109 -26q-178 0 -186 145h-4 q-88 -162 -275 -162q-135 0 -211 78t-76 239zM180 1245l187 295h221l182 -295h-186l-111 180l-117 -180h-176zM285 301q0 -74 35.5 -120t101.5 -46q98 0 148.5 68.5t50.5 193.5v185q-33 -27 -132.5 -62t-113.5 -41q-90 -43 -90 -178z" />
<glyph unicode="&#xe3;" d="M63 288q0 161 61.5 228.5t194.5 110.5l173 47q70 18 99.5 47t29.5 101.5t-34 114.5t-126 42t-126 -56.5t-34 -154.5h-209q0 182 88 272t299 90q158 0 254 -65.5t96 -204.5v-631q0 -31 16.5 -54t41 -23t37.5 6v-144q-57 -27 -109 -26q-178 0 -186 145h-4 q-88 -162 -275 -162q-135 0 -211 78t-76 239zM166 1260q0 84 52 164.5t155 80.5q27 0 106.5 -36t116.5 -35q61 -1 61 77h127q0 -80 -48 -160.5t-128 -80.5q-49 0 -133 35.5t-115 35.5t-49 -24.5t-18 -56.5h-127zM285 301q0 -74 35.5 -120t101.5 -46q98 0 148.5 68.5 t50.5 193.5v185q-33 -27 -132.5 -62t-113.5 -41q-90 -43 -90 -178z" />
<glyph unicode="&#xe4;" d="M63 288q0 161 61.5 228.5t194.5 110.5l173 47q70 18 99.5 47t29.5 101.5t-34 114.5t-126 42t-126 -56.5t-34 -154.5h-209q0 182 88 272t299 90q158 0 254 -65.5t96 -204.5v-631q0 -31 16.5 -54t41 -23t37.5 6v-144q-57 -27 -109 -26q-178 0 -186 145h-4 q-88 -162 -275 -162q-135 0 -211 78t-76 239zM207 1286v221h196v-221h-196zM285 301q0 -74 35.5 -120t101.5 -46q98 0 148.5 68.5t50.5 193.5v185q-33 -27 -132.5 -62t-113.5 -41q-90 -43 -90 -178zM547 1286v221h196v-221h-196z" />
<glyph unicode="&#xe5;" d="M63 288q0 161 61.5 228.5t194.5 110.5l173 47q70 18 99.5 47t29.5 101.5t-34 114.5t-126 42t-126 -56.5t-34 -154.5h-209q0 182 88 272t299 90q158 0 254 -65.5t96 -204.5v-631q0 -31 16.5 -54t41 -23t37.5 6v-144q-57 -27 -109 -26q-178 0 -186 145h-4 q-88 -162 -275 -162q-135 0 -211 78t-76 239zM258 1431.5q0 90.5 63.5 154t153.5 63.5t153.5 -63.5t63.5 -154t-63.5 -154t-153.5 -63.5t-153.5 63.5t-63.5 154zM285 301q0 -74 35.5 -120t101.5 -46q98 0 148.5 68.5t50.5 193.5v185q-33 -27 -132.5 -62t-113.5 -41 q-90 -43 -90 -178zM360 1431.5q0 -47.5 34 -81t81 -33.5t81 33.5t34 81t-34 81t-81 33.5t-81 -33.5t-34 -81z" />
<glyph unicode="&#xe6;" horiz-adv-x="1441" d="M63 284q0 157 69 228.5t204 105.5l174 46q55 14 74.5 43.5t19.5 107.5q0 164 -135 164q-100 0 -134 -56.5t-34 -154.5h-209q0 182 88 272t294 90t263 -141q82 137 271 141q199 0 278.5 -122.5t79.5 -368.5v-117h-551v-78q0 -313 162 -321q55 0 93 27.5t54 71.5 q29 76 29 147h209q0 -182 -103.5 -290t-283.5 -108q-156 4 -223 79q-50 57 -78 122q-41 -96 -120 -148.5t-194.5 -52.5t-206 78t-90.5 235zM285 300.5q0 -74.5 34.5 -120t94.5 -45.5q192 0 192 256v174q-27 -31 -144.5 -62.5t-147 -79.5t-29.5 -122.5zM817 674h328v59 q0 246 -160 246q-88 0 -128 -83t-40 -175v-47z" />
<glyph unicode="&#xe7;" horiz-adv-x="909" d="M63 551q0 279 92.5 429t317.5 150q94 2 166 -26.5t110.5 -70.5t63.5 -99q39 -89 39 -199h-221q0 96 -35 165t-123 67q-111 0 -149.5 -104.5t-38.5 -311.5t38.5 -311.5t149.5 -104.5q168 -4 168 266h209q-10 -193 -82 -300t-233 -124l-68 -94q51 10 82 11q68 0 114 -45.5 t46 -117t-69 -122.5t-177.5 -51t-200.5 34l33 82q72 -27 135 -26q115 0 115 78q0 35 -28 56t-58.5 21t-85.5 -16l-37 35l96 153q-139 8 -223 87t-115 197t-31 292z" />
<glyph unicode="&#xe8;" d="M76 535q0 239 74 404q40 91 125 141t208 50q219 0 304 -121.5t85 -369.5v-117h-575v-63q0 -241 86 -307q39 -29 96 -29t95 27.5t54 71.5q29 76 29 147h209q0 -182 -103.5 -290t-283.5 -108q-63 0 -112.5 9.5t-106.5 43t-95 92.5q-89 137 -89 419zM244 1540h245l123 -295 h-151zM297 674h354v59q0 246 -170 246q-98 0 -141 -80t-43 -203v-22z" />
<glyph unicode="&#xe9;" d="M76 535q0 239 74 404q40 91 125 141t208 50q219 0 304 -121.5t85 -369.5v-117h-575v-63q0 -241 86 -307q39 -29 96 -29t95 27.5t54 71.5q29 76 29 147h209q0 -182 -103.5 -290t-283.5 -108q-63 0 -112.5 9.5t-106.5 43t-95 92.5q-89 137 -89 419zM297 674h354v59 q0 246 -170 246q-98 0 -141 -80t-43 -203v-22zM387 1245l123 295h246l-217 -295h-152z" />
<glyph unicode="&#xea;" d="M76 535q0 239 74 404q40 91 125 141t208 50q219 0 304 -121.5t85 -369.5v-117h-575v-63q0 -241 86 -307q39 -29 96 -29t95 27.5t54 71.5q29 76 29 147h209q0 -182 -103.5 -290t-283.5 -108q-63 0 -112.5 9.5t-106.5 43t-95 92.5q-89 137 -89 419zM205 1245l186 295h221 l183 -295h-187l-110 180l-117 -180h-176zM297 674h354v59q0 246 -170 246q-98 0 -141 -80t-43 -203v-22z" />
<glyph unicode="&#xeb;" d="M76 535q0 239 74 404q40 91 125 141t208 50q219 0 304 -121.5t85 -369.5v-117h-575v-63q0 -241 86 -307q39 -29 96 -29t95 27.5t54 71.5q29 76 29 147h209q0 -182 -103.5 -290t-283.5 -108q-63 0 -112.5 9.5t-106.5 43t-95 92.5q-89 137 -89 419zM231 1286v221h197v-221 h-197zM297 674h354v59q0 246 -170 246q-98 0 -141 -80t-43 -203v-22zM571 1286v221h197v-221h-197z" />
<glyph unicode="&#xec;" horiz-adv-x="454" d="M-29 1540h246l123 -295h-152zM117 0v1102h221v-1102h-221z" />
<glyph unicode="&#xed;" horiz-adv-x="454" d="M115 1245l123 295h245l-217 -295h-151zM117 0v1102h221v-1102h-221z" />
<glyph unicode="&#xee;" horiz-adv-x="454" d="M-68 1245l187 295h221l182 -295h-186l-111 180l-116 -180h-177zM117 0v1102h221v-1102h-221z" />
<glyph unicode="&#xef;" horiz-adv-x="454" d="M-41 1286v221h197v-221h-197zM117 0v1102h221v-1102h-221zM299 1286v221h197v-221h-197z" />
<glyph unicode="&#xf0;" d="M63 551q0 551 377 551q106 0 168 -68l4 4q-92 139 -241 285l-178 -98l-74 73l176 97q-70 68 -131 106l162 88q51 -31 135 -104l186 100l66 -74l-176 -96q201 -190 274.5 -377.5t73.5 -486.5q0 -580 -411 -580t-411 580zM285 526.5q0 -200.5 37.5 -296t151.5 -95.5 t152 95.5t38 320.5q0 291 -93 359q-39 28 -97 28t-97 -28.5t-59 -85.5q-33 -97 -33 -297.5z" />
<glyph unicode="&#xf1;" horiz-adv-x="985" d="M106 0v1102h209v-129h7q41 74 115.5 115.5t187 41.5t183.5 -69.5t71 -229.5v-831h-222v756q0 106 -34.5 152t-113.5 46t-130 -56t-51 -159v-739h-222zM184 1260q0 84 52.5 164.5t154.5 80.5q27 0 107 -36t116 -35q62 -1 62 77h127q0 -80 -48 -160.5t-128 -80.5 q-49 0 -133 35.5t-115 35.5t-49.5 -24.5t-18.5 -56.5h-127z" />
<glyph unicode="&#xf2;" d="M63 551q0 279 92.5 429t318.5 150t318.5 -150.5t92.5 -428.5q0 -580 -411 -580t-411 580zM219 1540h246l123 -295h-152zM285 542q0 -216 37.5 -311.5t151.5 -95.5t152 95.5t38 311.5t-39 320.5t-151 104.5t-150.5 -104.5t-38.5 -320.5z" />
<glyph unicode="&#xf3;" d="M63 551q0 279 92.5 429t318.5 150t318.5 -150.5t92.5 -428.5q0 -580 -411 -580t-411 580zM285 542q0 -216 37.5 -311.5t151.5 -95.5t152 95.5t38 311.5t-39 320.5t-151 104.5t-150.5 -104.5t-38.5 -320.5zM362 1245l123 295h246l-217 -295h-152z" />
<glyph unicode="&#xf4;" d="M63 551q0 279 92.5 429t318.5 150t318.5 -150.5t92.5 -428.5q0 -580 -411 -580t-411 580zM180 1245l187 295h221l182 -295h-186l-111 180l-117 -180h-176zM285 542q0 -216 37.5 -311.5t151.5 -95.5t152 95.5t38 311.5t-39 320.5t-151 104.5t-150.5 -104.5t-38.5 -320.5z " />
<glyph unicode="&#xf5;" d="M63 551q0 279 92.5 429t318.5 150t318.5 -150.5t92.5 -428.5q0 -580 -411 -580t-411 580zM166 1260q0 84 52 164.5t155 80.5q27 0 106.5 -36t116.5 -35q61 -1 61 77h127q0 -80 -48 -160.5t-128 -80.5q-49 0 -133 35.5t-115 35.5t-49 -24.5t-18 -56.5h-127zM285 542 q0 -216 37.5 -311.5t151.5 -95.5t152 95.5t38 311.5t-39 320.5t-151 104.5t-150.5 -104.5t-38.5 -320.5z" />
<glyph unicode="&#xf6;" d="M63 551q0 279 92.5 429t318.5 150t318.5 -150.5t92.5 -428.5q0 -580 -411 -580t-411 580zM207 1286v221h196v-221h-196zM285 542q0 -216 37.5 -311.5t151.5 -95.5t152 95.5t38 311.5t-39 320.5t-151 104.5t-150.5 -104.5t-38.5 -320.5zM547 1286v221h196v-221h-196z" />
<glyph unicode="&#xf7;" horiz-adv-x="1228" d="M96 430v176h1037v-176h-1037zM467 98.5q0 61.5 43 104.5t104.5 43t104.5 -43t43 -104.5t-43 -104.5t-104.5 -43t-104.5 43t-43 104.5zM467 938q0 61 43 104t104.5 43t104.5 -43t43 -104t-43 -104t-104.5 -43t-104.5 43t-43 104z" />
<glyph unicode="&#xf8;" d="M63 551q0 279 92.5 429t317.5 150q113 0 191 -40l61 133l98 -54l-67 -143q129 -129 129 -475q0 -279 -92.5 -429.5t-319.5 -150.5q-113 0 -190 39l-64 -137l-98 53l72 152q-129 129 -130 473zM285 583q0 -175 14 -270h4l283 609q-45 45 -113 45q-111 0 -149.5 -104.5 t-38.5 -279.5zM362 180q41 -45 111 -45q113 0 152 104.5t39 283t-17 268.5h-4z" />
<glyph unicode="&#xf9;" horiz-adv-x="985" d="M106 332v770h222v-791q0 -88 37.5 -126t112.5 -38t127 48.5t52 136.5v770h222v-1102h-209v129h-6q-41 -74 -116 -116t-167 -42q-133 0 -204 80t-71 281zM238 1540h245l123 -295h-151z" />
<glyph unicode="&#xfa;" horiz-adv-x="985" d="M106 332v770h222v-791q0 -88 37.5 -126t112.5 -38t127 48.5t52 136.5v770h222v-1102h-209v129h-6q-41 -74 -116 -116t-167 -42q-133 0 -204 80t-71 281zM381 1245l123 295h246l-218 -295h-151z" />
<glyph unicode="&#xfb;" horiz-adv-x="985" d="M106 332v770h222v-791q0 -88 37.5 -126t112.5 -38t127 48.5t52 136.5v770h222v-1102h-209v129h-6q-41 -74 -116 -116t-167 -42q-133 0 -204 80t-71 281zM199 1245l186 295h221l182 -295h-186l-110 180l-117 -180h-176z" />
<glyph unicode="&#xfc;" horiz-adv-x="985" d="M106 332v770h222v-791q0 -88 37.5 -126t112.5 -38t127 48.5t52 136.5v770h222v-1102h-209v129h-6q-41 -74 -116 -116t-167 -42q-133 0 -204 80t-71 281zM225 1286v221h197v-221h-197zM565 1286v221h197v-221h-197z" />
<glyph unicode="&#xfd;" horiz-adv-x="872" d="M16 1102h238l190 -828h5l176 828h231l-303 -1143q-63 -219 -136 -279.5t-249 -56.5q-31 0 -88 8v176q49 -8 91 -8q98 0 130 86l29 90zM324 1245l122 295h246l-217 -295h-151z" />
<glyph unicode="&#xfe;" horiz-adv-x="985" d="M106 -360v1822h222v-489h4q66 158 250 157q340 0 340 -593q0 -332 -115 -459q-97 -107 -225 -107q-184 0 -250 158h-4v-489h-222zM315 553q0 -205 39 -305.5t143.5 -100.5t147.5 88.5t43 302.5t-39 315t-146 101t-147.5 -98t-40.5 -303z" />
<glyph unicode="&#xff;" horiz-adv-x="872" d="M16 1102h238l190 -828h5l176 828h231l-303 -1143q-63 -219 -136 -279.5t-249 -56.5q-31 0 -88 8v176q49 -8 91 -8q98 0 130 86l29 90zM168 1286v221h197v-221h-197zM508 1286v221h197v-221h-197z" />
<glyph unicode="&#x152;" horiz-adv-x="1630" d="M86 728q0 392 111.5 577.5t343.5 185.5q197 0 274 -119h4v90h725v-196h-520v-406h487v-196h-487v-467h537v-197h-742v104h-4q-82 -133 -283 -133q-229 0 -337.5 182.5t-108.5 574.5zM319 782.5q0 -227.5 18.5 -348.5t55.5 -181t78 -83t98 -23q115 0 174.5 69.5 t59.5 266.5v496q0 195 -56.5 265.5t-160.5 70.5q-51 0 -88 -12.5t-73 -49t-57 -99.5q-49 -144 -49 -371.5z" />
<glyph unicode="&#x153;" horiz-adv-x="1478" d="M63 551q0 431 209 539q78 40 171.5 40t147.5 -15t89 -45q51 -43 88 -107q98 168 293 167.5t274.5 -123t79.5 -368.5v-117h-551v-78q0 -313 162 -321q55 0 93 27.5t55 71.5q28 76 28 147h209q0 -182 -103.5 -290t-283.5 -108q-143 0 -209 77q-48 57 -61 99 q-86 -176 -300 -176t-302.5 151.5t-88.5 428.5zM285 599q0 -148 7 -218t26 -128q37 -118 148.5 -118t150 104.5t38.5 311.5t-38.5 311.5t-151.5 104.5q-110 0 -147 -118q-33 -102 -33 -250zM866 674h328v59q0 246 -160 246q-88 0 -128 -83t-40 -175v-47z" />
<glyph unicode="&#x178;" horiz-adv-x="985" d="M-8 1462h260l246 -631l252 631h243l-391 -891v-571h-233v571zM225 1585v221h197v-221h-197zM565 1585v221h197v-221h-197z" />
<glyph unicode="&#x2c6;" horiz-adv-x="454" d="M-68 1245l187 295h221l182 -295h-186l-111 180l-116 -180h-177z" />
<glyph unicode="&#x2dc;" horiz-adv-x="454" d="M-82 1260q0 84 52.5 164.5t154.5 80.5q27 0 106.5 -36t116.5 -35q62 -1 62 77h127q0 -80 -48.5 -160.5t-128.5 -80.5q-49 0 -133 35.5t-114.5 35.5t-49 -24.5t-18.5 -56.5h-127z" />
<glyph unicode="&#x2000;" horiz-adv-x="974" />
<glyph unicode="&#x2001;" horiz-adv-x="1948" />
<glyph unicode="&#x2002;" horiz-adv-x="974" />
<glyph unicode="&#x2003;" horiz-adv-x="1948" />
<glyph unicode="&#x2004;" horiz-adv-x="649" />
<glyph unicode="&#x2005;" horiz-adv-x="487" />
<glyph unicode="&#x2006;" horiz-adv-x="324" />
<glyph unicode="&#x2007;" horiz-adv-x="324" />
<glyph unicode="&#x2008;" horiz-adv-x="243" />
<glyph unicode="&#x2009;" horiz-adv-x="389" />
<glyph unicode="&#x200a;" horiz-adv-x="108" />
<glyph unicode="&#x2010;" horiz-adv-x="720" d="M92 487v209h537v-209h-537z" />
<glyph unicode="&#x2011;" horiz-adv-x="720" d="M92 487v209h537v-209h-537z" />
<glyph unicode="&#x2012;" horiz-adv-x="720" d="M92 487v209h537v-209h-537z" />
<glyph unicode="&#x2013;" horiz-adv-x="1024" d="M0 494v196h1024v-196h-1024z" />
<glyph unicode="&#x2014;" horiz-adv-x="2048" d="M0 494v196h2048v-196h-2048z" />
<glyph unicode="&#x2018;" horiz-adv-x="491" d="M129 877v270q0 131 53.5 211t179.5 104v-119q-102 -27 -102 -165v-31h102v-270h-233z" />
<glyph unicode="&#x2019;" horiz-adv-x="491" d="M129 877v118q102 27 102 166v31h-102v270h233v-270q0 -131 -53 -211t-180 -104z" />
<glyph unicode="&#x201a;" horiz-adv-x="491" d="M129 0v270h233v-270q0 -131 -53 -211t-180 -104v118q102 27 102 166v31h-102z" />
<glyph unicode="&#x201c;" horiz-adv-x="872" d="M137 877v270q0 131 53.5 211t180.5 104v-119q-102 -27 -103 -165v-31h103v-270h-234zM502 877v270q0 131 53 211t180 104v-119q-102 -27 -102 -165v-31h102v-270h-233z" />
<glyph unicode="&#x201d;" horiz-adv-x="872" d="M137 877v118q102 27 103 166v31h-103v270h234v-270q0 -131 -53.5 -211t-180.5 -104zM502 877v118q102 27 102 166v31h-102v270h233v-270q0 -131 -53 -211t-180 -104z" />
<glyph unicode="&#x201e;" horiz-adv-x="872" d="M137 0v270h234v-270q0 -131 -53.5 -211t-180.5 -104v118q102 27 103 166v31h-103zM502 0v270h233v-270q0 -131 -53 -211t-180 -104v118q102 27 102 166v31h-102z" />
<glyph unicode="&#x2022;" horiz-adv-x="1024" d="M147 731.5q0 149.5 106.5 257t258.5 107.5t258.5 -107.5t106.5 -257t-106.5 -257t-258.5 -107.5t-258.5 107.5t-106.5 257z" />
<glyph unicode="&#x2026;" horiz-adv-x="2048" d="M225 0v270h234v-270h-234zM907 0v270h234v-270h-234zM1589 0v270h234v-270h-234z" />
<glyph unicode="&#x202f;" horiz-adv-x="389" />
<glyph unicode="&#x2039;" horiz-adv-x="491" d="M98 475v234l295 276v-225l-180 -168l180 -168v-225z" />
<glyph unicode="&#x203a;" horiz-adv-x="491" d="M98 199v225l181 168l-181 168v225l295 -276v-234z" />
<glyph unicode="&#x205f;" horiz-adv-x="487" />
<glyph unicode="&#x20ac;" horiz-adv-x="983" d="M0 506l49 139h96q-4 76 0 143h-145l49 140h105q31 522 483 522q232 0 346 -141l-70 -189q-35 76 -105.5 121t-170.5 45q-229 0 -250 -358h459l-49 -140h-418q-4 -68 0 -143h379l-49 -139h-322q6 -205 90 -299q63 -72 161.5 -72t181.5 42t130 118v-225 q-115 -99 -308.5 -99t-305.5 88q-168 135 -182 447h-154z" />
<glyph unicode="&#x2122;" horiz-adv-x="2048" d="M66 1323v139h679v-139h-251v-705h-177v705h-251zM913 618v844h244l229 -598l230 598h244v-844h-164v668h-4l-248 -668h-115l-248 668h-4v-668h-164z" />
<glyph unicode="&#xe000;" horiz-adv-x="1100" d="M0 0v1100h1100v-1100h-1100z" />
<glyph unicode="&#xfb01;" horiz-adv-x="1024" d="M20 938v164h154v102q0 152 69.5 213.5t211.5 61.5q72 0 120 -6v-170h-61q-119 0 -119 -105v-96h180v-164h-180v-938h-221v938h-154zM686 0v1102h221v-1102h-221zM686 1257v222h221v-222h-221z" />
<glyph unicode="&#xfb02;" horiz-adv-x="1024" d="M20 938v164h154v102q0 152 69.5 213.5t211.5 61.5q72 0 120 -6v-170h-61q-119 0 -119 -105v-96h180v-164h-180v-938h-221v938h-154zM686 0v1462h221v-1462h-221z" />
<glyph unicode="&#xfb03;" horiz-adv-x="1593" d="M20 938v164h154v102q0 152 69.5 213.5t211.5 61.5q72 0 120 -6v-170h-61q-119 0 -119 -105v-96h180v-164h-180v-938h-221v938h-154zM589 938v164h154v102q0 152 69.5 213.5t211.5 61.5q72 0 120 -6v-170h-61q-119 0 -119 -105v-96h180v-164h-180v-938h-221v938h-154z M1256 0v1102h221v-1102h-221zM1256 1257v222h221v-222h-221z" />
<glyph unicode="&#xfb04;" horiz-adv-x="1593" d="M20 938v164h154v102q0 152 69.5 213.5t211.5 61.5q72 0 120 -6v-170h-61q-119 0 -119 -105v-96h180v-164h-180v-938h-221v938h-154zM589 938v164h154v102q0 152 69.5 213.5t211.5 61.5q72 0 120 -6v-170h-61q-119 0 -119 -105v-96h180v-164h-180v-938h-221v938h-154z M1256 0v1462h221v-1462h-221z" />
</font>
</defs>
</svg>
